<svg width="3210" height="500" viewBox="0 0 3210 500" fill="none" xmlns="http://www.w3.org/2000/svg">
<g id="Frame 1" clip-path="url(#clip0_5_31)">
<path id="Vector" d="M3031.02 312.718L3006.62 301.974M3055.43 323.462L3070.07 329.908L3076.84 314.532C3077.36 313.372 3077.44 312.066 3077.08 310.849C3076.72 309.633 3075.93 308.585 3074.87 307.894L3051.53 292.609L3046.08 269.234C3045.9 268.428 3045.52 267.676 3045 267.039C3044.47 266.402 3043.8 265.896 3043.04 265.563L3007.6 249.962C3005.79 249.149 3003.78 248.858 3001.81 249.124C2999.84 249.389 2997.98 250.2 2996.45 251.464L2989.04 257.701C2985.2 260.873 2982.15 264.899 2980.14 269.457L2972.45 286.932L2982.21 291.23" stroke="black" stroke-width="4" stroke-linecap="round" stroke-linejoin="round"/>
<path id="Vector_2" d="M2987.97 311.245C2994.71 314.212 3002.57 311.154 3005.54 304.414C3008.51 297.675 3005.45 289.806 2998.71 286.839C2991.97 283.872 2984.1 286.931 2981.13 293.67C2978.17 300.41 2981.23 308.279 2987.97 311.245Z" stroke="black" stroke-width="4" stroke-linecap="round" stroke-linejoin="round"/>
<path id="Vector_3" d="M3036.78 332.733C3043.52 335.7 3051.39 332.642 3054.35 325.902C3057.32 319.163 3054.26 311.294 3047.52 308.327C3040.78 305.36 3032.91 308.419 3029.95 315.158C3026.98 321.898 3030.04 329.767 3036.78 332.733Z" stroke="black" stroke-width="4" stroke-linecap="round" stroke-linejoin="round"/>
<path id="Vector_4" d="M1282 82.6L1297.75 66.85M1282 73.15L1263.1 54.25M1282 133V51.1M1247.49 38.5C1249.08 20.838 1263.93 7 1282 7C1300.07 7 1314.92 20.838 1316.51 38.5H1316.65C1324.17 38.5 1331.38 41.4869 1336.7 46.8035C1342.01 52.1202 1345 59.3311 1345 66.85C1345 74.3689 1342.01 81.5798 1336.7 86.8965C1331.38 92.2131 1324.17 95.2 1316.65 95.2H1247.35C1239.83 95.2 1232.62 92.2131 1227.3 86.8965C1221.99 81.5798 1219 74.3689 1219 66.85C1219 59.3311 1221.99 52.1202 1227.3 46.8035C1232.62 41.4869 1239.83 38.5 1247.35 38.5H1247.49Z" stroke="black" stroke-width="4" stroke-linecap="round" stroke-linejoin="round"/>
<path id="Vector_5" d="M1398 131.4L1408.5 120.9M1398 125.1L1385.4 112.5M1398 165V110.4M1374.99 102C1376.05 90.2253 1385.95 81 1398 81C1410.05 81 1419.95 90.2253 1421.01 102H1421.1C1426.11 102 1430.92 103.991 1434.46 107.536C1438.01 111.08 1440 115.887 1440 120.9C1440 125.913 1438.01 130.72 1434.46 134.264C1430.92 137.809 1426.11 139.8 1421.1 139.8H1374.9C1369.89 139.8 1365.08 137.809 1361.54 134.264C1357.99 130.72 1356 125.913 1356 120.9C1356 115.887 1357.99 111.08 1361.54 107.536C1365.08 103.991 1369.89 102 1374.9 102H1374.99Z" stroke="black" stroke-width="4" stroke-linecap="round" stroke-linejoin="round"/>
<path id="Vector_6" d="M0 0L45.475 23.6929C88.275 47.3857 179.225 94.7714 267.5 165.85C355.775 236.929 446.725 331.7 535 367.239C623.275 402.779 714.225 379.086 802.5 343.546C890.775 308.007 981.725 260.621 1070 213.236C1158.28 165.85 1249.22 118.464 1337.5 142.157C1425.78 165.85 1516.72 260.621 1605 343.546C1693.28 426.471 1784.22 497.55 1872.5 485.704C1960.78 473.857 2051.72 379.086 2140 379.086C2228.28 379.086 2319.22 473.857 2407.5 462.011C2495.78 450.164 2586.72 331.7 2675 284.314C2763.28 236.929 2854.22 260.621 2942.5 296.161C3030.78 331.7 3121.72 379.086 3164.52 402.779L3210 426.471" stroke="black" stroke-width="7"/>
<path id="Vector_7" d="M1781.77 308.5H1774M1859.5 230.773V223M1859.5 394V386.227M1797.32 370.682L1805.09 362.909M1797.32 246.318L1805.09 254.091M1921.68 370.682L1913.91 362.909M1921.68 246.318L1913.91 254.091M1945 308.5H1937.23M1859.5 355.136C1847.13 355.136 1835.27 350.223 1826.52 341.477C1817.78 332.731 1812.86 320.869 1812.86 308.5C1812.86 296.131 1817.78 284.269 1826.52 275.523C1835.27 266.777 1847.13 261.864 1859.5 261.864C1871.87 261.864 1883.73 266.777 1892.48 275.523C1901.22 284.269 1906.14 296.131 1906.14 308.5C1906.14 320.869 1901.22 332.731 1892.48 341.477C1883.73 350.223 1871.87 355.136 1859.5 355.136Z" stroke="black" stroke-width="4" stroke-linecap="round" stroke-linejoin="round"/>
<path id="Vector_8" d="M2301.41 113.688C2305.29 112.3 2309.37 111.594 2313.48 111.6C2317.62 111.6 2321.6 112.309 2325.32 113.61M2325.32 113.61C2339.5 118.584 2349.67 132.245 2349.67 148.319C2349.67 168.6 2333.47 185.038 2313.48 185.038H2250.14C2235.15 185.038 2223 172.71 2223 157.501C2223 142.292 2235.15 129.963 2250.14 129.957C2251.91 129.957 2253.67 130.131 2255.4 130.477M2325.32 113.61C2323.3 95.2663 2307.97 81 2289.35 81C2269.36 81 2253.16 97.4381 2253.16 117.719C2253.15 122.075 2253.91 126.397 2255.4 130.477M2255.4 130.477C2258.91 131.175 2262.24 132.576 2265.22 134.599" stroke="black" stroke-width="4" stroke-linecap="round"/>
<path id="Line 1" d="M2917 259L2958.95 275.296" stroke="black" stroke-width="3"/>
<path id="Line 2" d="M2912 243L2953.95 259.296" stroke="black" stroke-width="3"/>
<path id="Line 3" d="M2933 235L2974.95 251.296" stroke="black" stroke-width="3"/>
</g>
<defs>
<clipPath id="clip0_5_31">
<rect width="3210" height="500" fill="white"/>
</clipPath>
</defs>
</svg>
